<mxfile host="65bd71144e">
    <diagram id="BkDp7rQmso0WY-TMDVCp" name="페이지-1">
        <mxGraphModel dx="939" dy="726" grid="1" gridSize="10" guides="1" tooltips="1" connect="1" arrows="1" fold="1" page="1" pageScale="1" pageWidth="827" pageHeight="1169" math="0" shadow="0">
            <root>
                <mxCell id="0"/>
                <mxCell id="1" parent="0"/>
                <mxCell id="5" value="" style="rounded=0;whiteSpace=wrap;html=1;fontFamily=빙그레 싸만코체;fontSource=https%3A%2F%2Fcdn.jsdelivr.net%2Fgh%2Fprojectnoonnu%2Fnoonfonts_20-10%401.0%2FBinggraeSamanco-Bold.woff;fontSize=35;" parent="1" vertex="1">
                    <mxGeometry x="350" y="60" width="120" height="60" as="geometry"/>
                </mxCell>
                <mxCell id="6" value="" style="rounded=0;whiteSpace=wrap;html=1;fontFamily=빙그레 싸만코체;fontSource=https%3A%2F%2Fcdn.jsdelivr.net%2Fgh%2Fprojectnoonnu%2Fnoonfonts_20-10%401.0%2FBinggraeSamanco-Bold.woff;fontSize=35;" parent="1" vertex="1">
                    <mxGeometry x="30" y="340" width="120" height="60" as="geometry"/>
                </mxCell>
                <mxCell id="19" style="edgeStyle=none;html=1;exitX=0.5;exitY=1;exitDx=0;exitDy=0;entryX=0.5;entryY=0;entryDx=0;entryDy=0;strokeWidth=3;endArrow=open;endFill=0;" edge="1" parent="1" source="8" target="18">
                    <mxGeometry relative="1" as="geometry"/>
                </mxCell>
                <mxCell id="8" value="CurrencyExchangeService" style="rounded=0;whiteSpace=wrap;html=1;fontFamily=빙그레 싸만코체;fontSource=https%3A%2F%2Fcdn.jsdelivr.net%2Fgh%2Fprojectnoonnu%2Fnoonfonts_20-10%401.0%2FBinggraeSamanco-Bold.woff;fontSize=30;strokeWidth=3;" parent="1" vertex="1">
                    <mxGeometry x="600" y="250" width="310" height="60" as="geometry"/>
                </mxCell>
                <mxCell id="9" value="NamingServer" style="rounded=0;whiteSpace=wrap;html=1;fontFamily=빙그레 싸만코체;fontSource=https%3A%2F%2Fcdn.jsdelivr.net%2Fgh%2Fprojectnoonnu%2Fnoonfonts_20-10%401.0%2FBinggraeSamanco-Bold.woff;fontSize=30;strokeWidth=3;" parent="1" vertex="1">
                    <mxGeometry x="990" y="410" width="310" height="60" as="geometry"/>
                </mxCell>
                <mxCell id="15" value="CurrentExchangeService1" style="rounded=0;whiteSpace=wrap;html=1;fontFamily=빙그레 싸만코체;fontSource=https%3A%2F%2Fcdn.jsdelivr.net%2Fgh%2Fprojectnoonnu%2Fnoonfonts_20-10%401.0%2FBinggraeSamanco-Bold.woff;fontSize=30;strokeWidth=3;" vertex="1" parent="1">
                    <mxGeometry x="230" y="580" width="310" height="60" as="geometry"/>
                </mxCell>
                <mxCell id="16" value="CurrentExchangeService2" style="rounded=0;whiteSpace=wrap;html=1;fontFamily=빙그레 싸만코체;fontSource=https%3A%2F%2Fcdn.jsdelivr.net%2Fgh%2Fprojectnoonnu%2Fnoonfonts_20-10%401.0%2FBinggraeSamanco-Bold.woff;fontSize=30;strokeWidth=3;" vertex="1" parent="1">
                    <mxGeometry x="600" y="580" width="310" height="60" as="geometry"/>
                </mxCell>
                <mxCell id="17" value="CurrentExchangeService3" style="rounded=0;whiteSpace=wrap;html=1;fontFamily=빙그레 싸만코체;fontSource=https%3A%2F%2Fcdn.jsdelivr.net%2Fgh%2Fprojectnoonnu%2Fnoonfonts_20-10%401.0%2FBinggraeSamanco-Bold.woff;fontSize=30;strokeWidth=3;" vertex="1" parent="1">
                    <mxGeometry x="970" y="580" width="310" height="60" as="geometry"/>
                </mxCell>
                <mxCell id="20" style="edgeStyle=none;html=1;exitX=0.25;exitY=1;exitDx=0;exitDy=0;entryX=0.468;entryY=0.028;entryDx=0;entryDy=0;entryPerimeter=0;strokeWidth=3;endArrow=open;endFill=0;" edge="1" parent="1" source="18" target="15">
                    <mxGeometry relative="1" as="geometry"/>
                </mxCell>
                <mxCell id="21" style="edgeStyle=none;html=1;exitX=0.75;exitY=1;exitDx=0;exitDy=0;entryX=0.5;entryY=0;entryDx=0;entryDy=0;strokeWidth=3;endArrow=open;endFill=0;" edge="1" parent="1" source="18" target="17">
                    <mxGeometry relative="1" as="geometry"/>
                </mxCell>
                <mxCell id="22" style="edgeStyle=none;html=1;exitX=0.5;exitY=1;exitDx=0;exitDy=0;strokeWidth=3;endArrow=open;endFill=0;" edge="1" parent="1" source="18" target="16">
                    <mxGeometry relative="1" as="geometry"/>
                </mxCell>
                <mxCell id="23" style="edgeStyle=none;html=1;exitX=1;exitY=0.5;exitDx=0;exitDy=0;entryX=0;entryY=0.5;entryDx=0;entryDy=0;strokeWidth=3;endArrow=open;endFill=0;" edge="1" parent="1" source="18" target="9">
                    <mxGeometry relative="1" as="geometry"/>
                </mxCell>
                <mxCell id="18" value="Ribbon" style="rounded=0;whiteSpace=wrap;html=1;fontFamily=빙그레 싸만코체;fontSource=https%3A%2F%2Fcdn.jsdelivr.net%2Fgh%2Fprojectnoonnu%2Fnoonfonts_20-10%401.0%2FBinggraeSamanco-Bold.woff;fontSize=30;strokeWidth=3;" vertex="1" parent="1">
                    <mxGeometry x="600" y="410" width="310" height="60" as="geometry"/>
                </mxCell>
            </root>
        </mxGraphModel>
    </diagram>
</mxfile>